<svg xmlns="http://www.w3.org/2000/svg" version="1.1" xmlns:xlink="http://www.w3.org/1999/xlink" xmlns:svgjs="http://svgjs.dev/svgjs" width="1000" height="194" viewBox="0 0 1000 194"><g transform="matrix(1,0,0,1,-0.6060606060606233,0.3177610949030196)"><svg viewBox="0 0 396 77" data-background-color="#6936f5" preserveAspectRatio="xMidYMid meet" height="194" width="1000" xmlns="http://www.w3.org/2000/svg" xmlns:xlink="http://www.w3.org/1999/xlink"><g id="tight-bounds" transform="matrix(1,0,0,1,0.2400000000000091,-0.1261216716883098)"><svg viewBox="0 0 395.52 77.25224334337663" height="77.25224334337663" width="395.52"><g><svg viewBox="0 0 492.26448479853224 96.1481992540406" height="77.25224334337663" width="395.52"><g transform="matrix(1,0,0,1,96.74448479853226,0)"><svg viewBox="0 0 395.52 96.1481992540406" height="96.1481992540406" width="395.52"><g><svg viewBox="0 0 395.52 96.1481992540406" height="96.1481992540406" width="395.52"><g><svg viewBox="0 0 395.52 96.1481992540406" height="96.1481992540406" width="395.52"><rect width="395.52" height="96.1481992540406" x="0" y="0" opacity="1" fill="#ffffff" data-fill-palette-color="tertiary"></rect><g transform="matrix(1,0,0,1,23.607599999999998,23.607599999999998)"><svg width="348.3048" viewBox="3 -32.74 235.62 33.11000000000001" height="48.93299925404061" data-palette-color="#6936f5"><path d="M5.62 0.07Q3 0.07 3-1.29L3-1.29 3-28.66Q3-29.57 3.42-29.97 3.83-30.37 4.74-30.37L4.74-30.37 13.87-30.37Q17.92-30.37 21.04-28.39 24.17-26.42 24.17-20.87L24.17-20.87Q24.17-17.07 22.36-14.95 20.56-12.84 18.3-12.11 16.04-11.38 14.28-11.38L14.28-11.38 9.69-11.38 9.69-1.29Q9.69 0.07 7.08 0.07L7.08 0.07 5.62 0.07ZM9.69-17.11L13.55-17.11Q15.11-17.11 16.22-17.94 17.33-18.77 17.33-20.87L17.33-20.87Q17.33-23 16.21-23.85 15.09-24.71 13.55-24.71L13.55-24.71 9.69-24.71 9.69-17.11ZM40.99 0.37Q33.66 0.37 30.19-3.44 26.71-7.25 26.71-15.28L26.71-15.28Q26.71-30.74 41.21-30.74L41.21-30.74Q43.19-30.74 45.31-30.35 47.43-29.96 48.86-29.26 50.29-28.56 50.29-27.71L50.29-27.71Q50.29-27.1 49.8-26.11 49.31-25.12 48.64-24.37 47.97-23.61 47.46-23.61L47.46-23.61Q47.34-23.61 46.8-23.85L46.8-23.85Q45.63-24.34 44.35-24.67 43.06-25 41.09-25L41.09-25Q37.25-25 35.41-22.57 33.57-20.14 33.57-15.23L33.57-15.23Q33.57-10.33 35.42-7.84 37.28-5.35 40.99-5.35L40.99-5.35Q42.92-5.35 44.35-5.74 45.77-6.13 47.14-6.74L47.14-6.74Q47.21-6.76 47.58-6.92 47.95-7.08 48.12-7.08L48.12-7.08Q48.75-7.08 49.34-6.34 49.92-5.59 50.29-4.65 50.66-3.71 50.66-3.3L50.66-3.3Q50.66-2.1 49.06-1.27 47.46-0.44 45.2-0.04 42.94 0.37 40.99 0.37L40.99 0.37ZM56.37 0Q55.46 0 55.05-0.42 54.63-0.83 54.63-1.73L54.63-1.73 54.63-28.66Q54.63-29.57 55.05-29.97 55.46-30.37 56.37-30.37L56.37-30.37 72.26-30.37Q72.94-30.37 73.25-29.86 73.55-29.35 73.55-28.2L73.55-28.2 73.55-26.88Q73.55-25.73 73.25-25.22 72.94-24.71 72.26-24.71L72.26-24.71 61.32-24.71 61.32-18.41 71.09-18.41Q71.77-18.41 72.08-17.9 72.38-17.38 72.38-16.24L72.38-16.24 72.38-14.89Q72.38-13.75 72.08-13.23 71.77-12.72 71.09-12.72L71.09-12.72 61.32-12.72 61.32-5.69 72.29-5.69Q72.97-5.69 73.27-5.18 73.58-4.66 73.58-3.54L73.58-3.54 73.58-2.17Q73.58-1.03 73.27-0.51 72.97 0 72.29 0L72.29 0 56.37 0ZM88.08 0.37Q82.54 0.37 79.85-2.5 77.17-5.37 77.17-11.21L77.17-11.21Q77.17-17.09 79.88-20.07 82.59-23.05 88.32-23.05L88.32-23.05Q89.96-23.05 91.63-22.69 93.3-22.34 94.41-21.67 95.52-21 95.52-20.04L95.52-20.04Q95.52-19.65 95.1-18.82 94.67-17.99 94.12-17.35 93.57-16.7 93.21-16.7L93.21-16.7Q93.03-16.7 92.45-17.04L92.45-17.04Q91.52-17.48 90.69-17.74 89.86-17.99 88.66-17.99L88.66-17.99Q86.1-17.99 84.93-16.37 83.76-14.75 83.76-11.38L83.76-11.38Q83.76-7.98 84.87-6.36 85.98-4.74 88.42-4.74L88.42-4.74Q89.76-4.74 90.76-5.02 91.76-5.3 92.67-5.74L92.67-5.74Q92.84-5.81 93.08-5.91 93.33-6.01 93.45-6.01L93.45-6.01Q93.89-6.01 94.41-5.38 94.94-4.76 95.32-3.96 95.7-3.15 95.7-2.71L95.7-2.71Q95.7-1.59 94.23-0.9 92.77-0.22 90.96 0.07 89.15 0.37 88.08 0.37L88.08 0.37ZM108.75 0.37Q103.6 0.37 100.91-2.66 98.21-5.69 98.21-11.38L98.21-11.38Q98.21-17.04 100.91-20.04 103.6-23.05 108.75-23.05L108.75-23.05Q113.91-23.05 116.58-20.06 119.25-17.07 119.25-11.38L119.25-11.38Q119.25-5.69 116.58-2.66 113.91 0.37 108.75 0.37L108.75 0.37ZM108.75-4.74Q110.81-4.74 111.77-6.4 112.73-8.06 112.73-11.38L112.73-11.38Q112.73-14.67 111.77-16.33 110.81-17.99 108.75-17.99L108.75-17.99Q104.7-17.99 104.7-11.38L104.7-11.38Q104.7-8.08 105.69-6.41 106.68-4.74 108.75-4.74L108.75-4.74ZM126.38 0.07Q123.79 0.07 123.79-1.29L123.79-1.29 123.79-15.06Q123.79-18.19 123.38-20.26L123.38-20.26Q123.25-20.92 123.25-21.19L123.25-21.19Q123.25-21.68 124.17-21.98 125.09-22.29 126.24-22.44 127.4-22.58 128.11-22.58L128.11-22.58Q128.87-22.58 129.17-22.02 129.48-21.46 129.72-20.39L129.72-20.39 129.87-19.75Q130.9-21.12 132.62-22.08 134.34-23.05 136.32-23.05L136.32-23.05Q139.59-23.05 141.15-21.34 142.71-19.63 142.71-16.04L142.71-16.04 142.71-1.29Q142.71 0.07 140.08 0.07L140.08 0.07 138.88 0.07Q136.29 0.07 136.29-1.29L136.29-1.29 136.29-15.06Q136.29-16.38 135.67-17.07 135.05-17.75 133.65-17.75L133.65-17.75Q132.48-17.75 131.58-16.97 130.68-16.19 130.21-15.23L130.21-15.23 130.21-1.29Q130.21 0.07 127.58 0.07L127.58 0.07 126.38 0.07ZM157.63 0.37Q152.48 0.37 149.78-2.66 147.08-5.69 147.08-11.38L147.08-11.38Q147.08-17.04 149.78-20.04 152.48-23.05 157.63-23.05L157.63-23.05Q162.78-23.05 165.45-20.06 168.12-17.07 168.12-11.38L168.12-11.38Q168.12-5.69 165.45-2.66 162.78 0.37 157.63 0.37L157.63 0.37ZM157.63-4.74Q159.68-4.74 160.64-6.4 161.61-8.06 161.61-11.38L161.61-11.38Q161.61-14.67 160.64-16.33 159.68-17.99 157.63-17.99L157.63-17.99Q153.57-17.99 153.57-11.38L153.57-11.38Q153.57-8.08 154.56-6.41 155.55-4.74 157.63-4.74L157.63-4.74ZM197.57-23.05Q200.81-23.05 202.36-21.34 203.91-19.63 203.91-16.04L203.91-16.04 203.91-1.29Q203.91 0.07 201.28 0.07L201.28 0.07 200.08 0.07Q197.49 0.07 197.49-1.29L197.49-1.29 197.49-15.06Q197.49-16.38 196.89-17.07 196.3-17.75 194.9-17.75L194.9-17.75Q193.68-17.75 192.84-17 192-16.26 191.49-15.28L191.49-15.28 191.49-1.29Q191.49 0.07 188.87 0.07L188.87 0.07 187.65 0.07Q185.07 0.07 185.07-1.29L185.07-1.29 185.07-15.06Q185.07-16.38 184.47-17.07 183.87-17.75 182.5-17.75L182.5-17.75Q181.33-17.75 180.44-16.97 179.55-16.19 179.08-15.23L179.08-15.23 179.08-1.29Q179.08 0.07 176.45 0.07L176.45 0.07 175.25 0.07Q172.66 0.07 172.66-1.29L172.66-1.29 172.66-15.06Q172.66-18.19 172.25-20.26L172.25-20.26Q172.13-20.92 172.13-21.19L172.13-21.19Q172.13-21.68 173.04-21.98 173.96-22.29 175.12-22.44 176.28-22.58 176.98-22.58L176.98-22.58Q177.74-22.58 178.05-22.02 178.35-21.46 178.6-20.39L178.6-20.39 178.74-19.75Q179.77-21.14 181.48-22.09 183.19-23.05 185.16-23.05L185.16-23.05Q187.41-23.05 188.81-22.24 190.22-21.44 190.88-19.75L190.88-19.75Q191.97-21.14 193.76-22.09 195.54-23.05 197.57-23.05L197.57-23.05ZM211.94-26.44Q210.58-26.44 209.95-26.78 209.33-27.12 209.33-27.83L209.33-27.83 209.33-31.32Q209.33-32.03 209.97-32.39 210.6-32.74 211.94-32.74L211.94-32.74 213.14-32.74Q214.48-32.74 215.12-32.39 215.75-32.03 215.75-31.32L215.75-31.32 215.75-27.83Q215.75-27.12 215.13-26.78 214.51-26.44 213.14-26.44L213.14-26.44 211.94-26.44ZM211.94 0.07Q209.33 0.07 209.33-1.29L209.33-1.29 209.33-21.41Q209.33-22.09 209.97-22.44 210.6-22.78 211.94-22.78L211.94-22.78 213.14-22.78Q214.48-22.78 215.12-22.44 215.75-22.09 215.75-21.41L215.75-21.41 215.75-1.29Q215.75 0.07 213.14 0.07L213.14 0.07 211.94 0.07ZM231.01 0.37Q225.47 0.37 222.78-2.5 220.09-5.37 220.09-11.21L220.09-11.21Q220.09-17.09 222.8-20.07 225.51-23.05 231.25-23.05L231.25-23.05Q232.89-23.05 234.56-22.69 236.23-22.34 237.34-21.67 238.45-21 238.45-20.04L238.45-20.04Q238.45-19.65 238.03-18.82 237.6-17.99 237.05-17.35 236.5-16.7 236.13-16.7L236.13-16.7Q235.96-16.7 235.38-17.04L235.38-17.04Q234.45-17.48 233.62-17.74 232.79-17.99 231.59-17.99L231.59-17.99Q229.03-17.99 227.86-16.37 226.69-14.75 226.69-11.38L226.69-11.38Q226.69-7.98 227.8-6.36 228.91-4.74 231.35-4.74L231.35-4.74Q232.69-4.74 233.69-5.02 234.69-5.3 235.6-5.74L235.6-5.74Q235.77-5.81 236.01-5.91 236.26-6.01 236.38-6.01L236.38-6.01Q236.82-6.01 237.34-5.38 237.87-4.76 238.25-3.96 238.62-3.15 238.62-2.71L238.62-2.71Q238.62-1.59 237.16-0.9 235.7-0.22 233.89 0.07 232.08 0.37 231.01 0.37L231.01 0.37Z" opacity="1" transform="matrix(1,0,0,1,0,0)" fill="#6936f5" class="undefined-text-0" data-fill-palette-color="quaternary" id="text-0"></path></svg></g></svg></g></svg></g></svg></g><g transform="matrix(1,0,0,1,0,14.854896784749272)"><svg viewBox="0 0 84.94068479853226 66.43840568454206" height="66.43840568454206" width="84.94068479853226"><g><svg xmlns="http://www.w3.org/2000/svg" xmlns:xlink="http://www.w3.org/1999/xlink" version="1.1" x="0" y="0" viewBox="0.8520000000000003 12.448999999999998 99.148 77.551" enable-background="new 0 0 100 100" xml:space="preserve" height="66.43840568454206" width="84.94068479853226" class="icon-icon-0" data-fill-palette-color="accent" id="icon-0"><path d="M89.449 71.641V21.779c0-3.359-2.859-6.084-6.391-6.084h-65.27c-3.528 0-6.39 2.725-6.39 6.084v49.861H8.271V18.886c0-3.556 3.09-6.437 6.905-6.437h70.501c3.809 0 6.9 2.881 6.9 6.437v52.755H89.449zM82.197 23.183H18.651v46.019h63.546V23.183zM56.533 55.385c0.557 0.929 0.252 2.134-0.678 2.688-0.934 0.558-2.135 0.252-2.689-0.679l-5.131-8.587-4.916 2.589V34.413l13.693 9.781-5.299 2.786L56.533 55.385zM100 81.984c0-4.427-3.588-8.016-8.018-8.016H8.867c-4.429 0-8.015 3.589-8.015 8.016l0 0C0.852 86.412 4.438 90 8.867 90h83.116C96.412 90 100 86.412 100 81.984L100 81.984zM53.348 81.984c0 1.612-1.307 2.922-2.923 2.922-1.611 0-2.919-1.31-2.919-2.922 0-1.614 1.309-2.923 2.919-2.923C52.041 79.062 53.348 80.37 53.348 81.984zM64.486 81.984c0 1.612-1.309 2.922-2.926 2.922-1.609 0-2.92-1.31-2.92-2.922 0-1.614 1.311-2.923 2.92-2.923C63.178 79.062 64.486 80.37 64.486 81.984zM42.389 81.984c0 1.612-1.308 2.922-2.922 2.922-1.614 0-2.921-1.31-2.921-2.922 0-1.614 1.308-2.923 2.921-2.923C41.082 79.062 42.389 80.37 42.389 81.984z" fill="#ffffff" data-fill-palette-color="accent"></path></svg></g></svg></g></svg></g><defs></defs></svg><rect width="395.52" height="77.25224334337663" fill="none" stroke="none" visibility="hidden"></rect></g></svg></g></svg>